<svg xmlns="http://www.w3.org/2000/svg" width="64" height="64" viewBox="0 0 64 64" fill="none" stroke="currentColor" stroke-width="1.6" stroke-linecap="round" stroke-linejoin="round"><circle cx="20" cy="18" r="6.5"></circle>
    <line x1="20" y1="7.5" x2="20" y2="5"></line>
    <line x1="30.5" y1="18" x2="33" y2="18"></line>
    <line x1="12.6" y1="10.6" x2="10.5" y2="8.5"></line>
    <line x1="27.4" y1="10.6" x2="29.5" y2="8.5"></line>
    <line x1="12.6" y1="25.4" x2="10.5" y2="27.5"></line>
    <path d="M18 46c-3.8 0-7-3-7-6.7 0-3.6 2.9-6.5 6.5-6.7 1.1-4.7 5.3-8.1 10.1-8.1 5.7 0 10.3 4.6 10.3 10.3 0 .3 0 .6-.1.9 4.3.5 7.6 4.2 7.6 8.5 0 1-.2 1.6-.5 2.4-.3.1-.6.1-.9.1H18z"></path></svg>