<svg xmlns="http://www.w3.org/2000/svg" width="64" height="64" viewBox="0 0 64 64" fill="none" stroke="currentColor" stroke-width="1.6" stroke-linecap="round" stroke-linejoin="round"><path d="M22 12 Q12 14 8 20 Q4 26 6 32 L8 50 Q8 54 12 54 L52 54 Q56 54 56 50 L58 32 Q60 26 56 20 Q52 14 42 12 C40 16 36 18 32 18 C28 18 24 16 22 12 Z"></path>
    <line x1="32" y1="20" x2="32" y2="54"></line>
    <path d="M10 26 Q32 30 54 26"></path>
    <path d="M8 34 Q32 38 56 34"></path>
    <path d="M8 42 Q32 46 56 42"></path>
    <path d="M10 50 Q32 53 54 50"></path></svg>